<svg width="280" height="40" viewBox="0 0 280 40" fill="none" xmlns="http://www.w3.org/2000/svg">
<path d="M8 1H272C275.866 1 279 4.13401 279 8V32C279 35.866 275.866 39 272 39H8C4.13401 39 1 35.866 1 32V8C1 4.13401 4.13401 1 8 1Z" stroke="#3E5871" stroke-width="2"/>
<path d="M93.692 25.128C93.3933 25.128 93.164 25.0427 93.004 24.872C92.844 24.7013 92.764 24.4667 92.764 24.168V14.552C92.764 14.2427 92.8493 14.008 93.02 13.848C93.1907 13.6773 93.4253 13.592 93.724 13.592C93.9907 13.592 94.1987 13.6453 94.348 13.752C94.508 13.848 94.652 14.0187 94.78 14.264L98.732 21.576H98.22L102.172 14.264C102.3 14.0187 102.439 13.848 102.588 13.752C102.737 13.6453 102.945 13.592 103.212 13.592C103.511 13.592 103.74 13.6773 103.9 13.848C104.06 14.008 104.14 14.2427 104.14 14.552V24.168C104.14 24.4667 104.06 24.7013 103.9 24.872C103.751 25.0427 103.521 25.128 103.212 25.128C102.913 25.128 102.684 25.0427 102.524 24.872C102.364 24.7013 102.284 24.4667 102.284 24.168V16.76H102.636L99.276 22.888C99.1693 23.0693 99.0573 23.2027 98.94 23.288C98.8227 23.3733 98.6627 23.416 98.46 23.416C98.2573 23.416 98.092 23.3733 97.964 23.288C97.836 23.192 97.724 23.0587 97.628 22.888L94.236 16.744H94.62V24.168C94.62 24.4667 94.54 24.7013 94.38 24.872C94.2307 25.0427 94.0013 25.128 93.692 25.128ZM110.287 25.16C109.401 25.16 108.639 24.9947 107.999 24.664C107.359 24.3333 106.863 23.864 106.511 23.256C106.169 22.648 105.999 21.928 105.999 21.096C105.999 20.2853 106.164 19.576 106.495 18.968C106.836 18.36 107.3 17.8853 107.887 17.544C108.484 17.192 109.161 17.016 109.919 17.016C110.473 17.016 110.969 17.1067 111.407 17.288C111.855 17.4693 112.233 17.7307 112.543 18.072C112.863 18.4133 113.103 18.8293 113.263 19.32C113.433 19.8 113.519 20.344 113.519 20.952C113.519 21.144 113.449 21.2933 113.311 21.4C113.183 21.496 112.996 21.544 112.751 21.544H107.615V20.392H112.111L111.855 20.632C111.855 20.1413 111.78 19.7307 111.631 19.4C111.492 19.0693 111.284 18.8187 111.007 18.648C110.74 18.4667 110.404 18.376 109.999 18.376C109.551 18.376 109.167 18.4827 108.847 18.696C108.537 18.8987 108.297 19.192 108.127 19.576C107.967 19.9493 107.887 20.3973 107.887 20.92V21.032C107.887 21.9067 108.089 22.5627 108.495 23C108.911 23.4267 109.519 23.64 110.319 23.64C110.596 23.64 110.905 23.608 111.247 23.544C111.599 23.4693 111.929 23.3467 112.239 23.176C112.463 23.048 112.66 22.9947 112.831 23.016C113.001 23.0267 113.135 23.0853 113.231 23.192C113.337 23.2987 113.401 23.432 113.423 23.592C113.444 23.7413 113.412 23.896 113.327 24.056C113.252 24.216 113.119 24.3547 112.927 24.472C112.553 24.7067 112.121 24.8827 111.631 25C111.151 25.1067 110.703 25.16 110.287 25.16ZM123.062 25.16C122.241 25.16 121.526 24.9947 120.918 24.664C120.31 24.3227 119.841 23.8427 119.51 23.224C119.18 22.6053 119.014 21.88 119.014 21.048C119.014 20.4187 119.105 19.8587 119.286 19.368C119.478 18.8667 119.75 18.4453 120.102 18.104C120.454 17.752 120.881 17.4853 121.382 17.304C121.884 17.112 122.444 17.016 123.062 17.016C123.414 17.016 123.793 17.064 124.198 17.16C124.614 17.256 125.004 17.416 125.366 17.64C125.537 17.7467 125.649 17.8747 125.702 18.024C125.756 18.1733 125.766 18.328 125.734 18.488C125.702 18.6373 125.633 18.7707 125.526 18.888C125.43 18.9947 125.308 19.064 125.158 19.096C125.009 19.1173 124.844 19.08 124.662 18.984C124.428 18.8453 124.188 18.744 123.942 18.68C123.697 18.6053 123.462 18.568 123.238 18.568C122.886 18.568 122.577 18.6267 122.31 18.744C122.044 18.8507 121.814 19.0107 121.622 19.224C121.441 19.4267 121.302 19.6827 121.206 19.992C121.11 20.3013 121.062 20.6587 121.062 21.064C121.062 21.8533 121.249 22.4773 121.622 22.936C122.006 23.384 122.545 23.608 123.238 23.608C123.462 23.608 123.692 23.576 123.926 23.512C124.172 23.448 124.417 23.3467 124.662 23.208C124.844 23.112 125.004 23.08 125.142 23.112C125.292 23.144 125.414 23.2187 125.51 23.336C125.606 23.4427 125.665 23.576 125.686 23.736C125.708 23.8853 125.686 24.0347 125.622 24.184C125.569 24.3333 125.462 24.456 125.302 24.552C124.95 24.7653 124.577 24.92 124.182 25.016C123.788 25.112 123.414 25.16 123.062 25.16ZM130.405 25.16C129.594 25.16 128.89 24.9947 128.293 24.664C127.696 24.3333 127.232 23.864 126.901 23.256C126.57 22.6373 126.405 21.912 126.405 21.08C126.405 20.4507 126.496 19.8907 126.677 19.4C126.869 18.8987 127.141 18.472 127.493 18.12C127.845 17.7573 128.266 17.4853 128.757 17.304C129.248 17.112 129.797 17.016 130.405 17.016C131.216 17.016 131.92 17.1813 132.517 17.512C133.114 17.8427 133.578 18.312 133.909 18.92C134.24 19.528 134.405 20.248 134.405 21.08C134.405 21.7093 134.309 22.2747 134.117 22.776C133.936 23.2773 133.669 23.7093 133.317 24.072C132.965 24.424 132.544 24.696 132.053 24.888C131.562 25.0693 131.013 25.16 130.405 25.16ZM130.405 23.64C130.8 23.64 131.146 23.544 131.445 23.352C131.744 23.16 131.973 22.8773 132.133 22.504C132.304 22.12 132.389 21.6453 132.389 21.08C132.389 20.2267 132.208 19.592 131.845 19.176C131.482 18.7493 131.002 18.536 130.405 18.536C130.01 18.536 129.664 18.632 129.365 18.824C129.066 19.0053 128.832 19.288 128.661 19.672C128.501 20.0453 128.421 20.5147 128.421 21.08C128.421 21.9227 128.602 22.5627 128.965 23C129.328 23.4267 129.808 23.64 130.405 23.64ZM137.048 25.128C136.728 25.128 136.482 25.0427 136.312 24.872C136.141 24.6907 136.056 24.4347 136.056 24.104V18.056C136.056 17.7253 136.141 17.4747 136.312 17.304C136.482 17.1333 136.722 17.048 137.032 17.048C137.341 17.048 137.581 17.1333 137.752 17.304C137.922 17.4747 138.008 17.7253 138.008 18.056V19.144L137.832 18.744C138.066 18.1787 138.429 17.752 138.92 17.464C139.421 17.1653 139.986 17.016 140.616 17.016C141.245 17.016 141.762 17.1333 142.168 17.368C142.573 17.6027 142.877 17.96 143.08 18.44C143.282 18.9093 143.384 19.5067 143.384 20.232V24.104C143.384 24.4347 143.298 24.6907 143.128 24.872C142.957 25.0427 142.712 25.128 142.392 25.128C142.072 25.128 141.821 25.0427 141.64 24.872C141.469 24.6907 141.384 24.4347 141.384 24.104V20.328C141.384 19.72 141.266 19.2773 141.032 19C140.808 18.7227 140.456 18.584 139.976 18.584C139.389 18.584 138.92 18.7707 138.568 19.144C138.226 19.5067 138.056 19.992 138.056 20.6V24.104C138.056 24.7867 137.72 25.128 137.048 25.128ZM148.999 25.16C148.306 25.16 147.724 25.0427 147.255 24.808C146.796 24.5733 146.455 24.232 146.231 23.784C146.007 23.3253 145.895 22.76 145.895 22.088V18.68H145.063C144.807 18.68 144.61 18.616 144.471 18.488C144.332 18.3493 144.263 18.1627 144.263 17.928C144.263 17.6827 144.332 17.496 144.471 17.368C144.61 17.24 144.807 17.176 145.063 17.176H145.895V15.72C145.895 15.3893 145.98 15.1387 146.151 14.968C146.332 14.7973 146.583 14.712 146.903 14.712C147.223 14.712 147.468 14.7973 147.639 14.968C147.81 15.1387 147.895 15.3893 147.895 15.72V17.176H149.591C149.847 17.176 150.044 17.24 150.183 17.368C150.322 17.496 150.391 17.6827 150.391 17.928C150.391 18.1627 150.322 18.3493 150.183 18.488C150.044 18.616 149.847 18.68 149.591 18.68H147.895V21.976C147.895 22.488 148.007 22.872 148.231 23.128C148.455 23.384 148.818 23.512 149.319 23.512C149.5 23.512 149.66 23.496 149.799 23.464C149.938 23.432 150.06 23.4107 150.167 23.4C150.295 23.3893 150.402 23.432 150.487 23.528C150.572 23.6133 150.615 23.7947 150.615 24.072C150.615 24.2853 150.578 24.4773 150.503 24.648C150.439 24.808 150.316 24.92 150.135 24.984C149.996 25.0267 149.815 25.064 149.591 25.096C149.367 25.1387 149.17 25.16 148.999 25.16ZM154.132 25.16C153.566 25.16 153.06 25.0533 152.612 24.84C152.174 24.616 151.828 24.3173 151.572 23.944C151.326 23.5707 151.204 23.1493 151.204 22.68C151.204 22.104 151.353 21.6507 151.652 21.32C151.95 20.9787 152.436 20.7333 153.108 20.584C153.78 20.4347 154.681 20.36 155.812 20.36H156.612V21.512H155.828C155.166 21.512 154.638 21.544 154.244 21.608C153.849 21.672 153.566 21.784 153.396 21.944C153.236 22.0933 153.156 22.3067 153.156 22.584C153.156 22.936 153.278 23.224 153.524 23.448C153.769 23.672 154.11 23.784 154.548 23.784C154.9 23.784 155.209 23.704 155.476 23.544C155.753 23.3733 155.972 23.144 156.132 22.856C156.292 22.568 156.372 22.2373 156.372 21.864V20.024C156.372 19.4907 156.254 19.1067 156.02 18.872C155.785 18.6373 155.39 18.52 154.836 18.52C154.526 18.52 154.19 18.5573 153.828 18.632C153.476 18.7067 153.102 18.8347 152.708 19.016C152.505 19.112 152.324 19.1387 152.164 19.096C152.014 19.0533 151.897 18.968 151.812 18.84C151.726 18.7013 151.684 18.552 151.684 18.392C151.684 18.232 151.726 18.0773 151.812 17.928C151.897 17.768 152.041 17.6507 152.244 17.576C152.734 17.3733 153.204 17.2293 153.652 17.144C154.11 17.0587 154.526 17.016 154.9 17.016C155.668 17.016 156.297 17.1333 156.788 17.368C157.289 17.6027 157.662 17.96 157.908 18.44C158.153 18.9093 158.276 19.5173 158.276 20.264V24.104C158.276 24.4347 158.196 24.6907 158.036 24.872C157.876 25.0427 157.646 25.128 157.348 25.128C157.049 25.128 156.814 25.0427 156.644 24.872C156.484 24.6907 156.404 24.4347 156.404 24.104V23.336H156.532C156.457 23.7093 156.308 24.0347 156.084 24.312C155.87 24.5787 155.598 24.7867 155.268 24.936C154.937 25.0853 154.558 25.16 154.132 25.16ZM163.922 25.16C163.1 25.16 162.386 24.9947 161.778 24.664C161.17 24.3227 160.7 23.8427 160.37 23.224C160.039 22.6053 159.874 21.88 159.874 21.048C159.874 20.4187 159.964 19.8587 160.146 19.368C160.338 18.8667 160.61 18.4453 160.962 18.104C161.314 17.752 161.74 17.4853 162.242 17.304C162.743 17.112 163.303 17.016 163.922 17.016C164.274 17.016 164.652 17.064 165.058 17.16C165.474 17.256 165.863 17.416 166.226 17.64C166.396 17.7467 166.508 17.8747 166.562 18.024C166.615 18.1733 166.626 18.328 166.594 18.488C166.562 18.6373 166.492 18.7707 166.386 18.888C166.29 18.9947 166.167 19.064 166.018 19.096C165.868 19.1173 165.703 19.08 165.522 18.984C165.287 18.8453 165.047 18.744 164.802 18.68C164.556 18.6053 164.322 18.568 164.098 18.568C163.746 18.568 163.436 18.6267 163.17 18.744C162.903 18.8507 162.674 19.0107 162.482 19.224C162.3 19.4267 162.162 19.6827 162.066 19.992C161.97 20.3013 161.922 20.6587 161.922 21.064C161.922 21.8533 162.108 22.4773 162.482 22.936C162.866 23.384 163.404 23.608 164.098 23.608C164.322 23.608 164.551 23.576 164.786 23.512C165.031 23.448 165.276 23.3467 165.522 23.208C165.703 23.112 165.863 23.08 166.002 23.112C166.151 23.144 166.274 23.2187 166.37 23.336C166.466 23.4427 166.524 23.576 166.546 23.736C166.567 23.8853 166.546 24.0347 166.482 24.184C166.428 24.3333 166.322 24.456 166.162 24.552C165.81 24.7653 165.436 24.92 165.042 25.016C164.647 25.112 164.274 25.16 163.922 25.16ZM171.468 25.16C170.774 25.16 170.193 25.0427 169.724 24.808C169.265 24.5733 168.924 24.232 168.7 23.784C168.476 23.3253 168.364 22.76 168.364 22.088V18.68H167.532C167.276 18.68 167.078 18.616 166.94 18.488C166.801 18.3493 166.732 18.1627 166.732 17.928C166.732 17.6827 166.801 17.496 166.94 17.368C167.078 17.24 167.276 17.176 167.532 17.176H168.364V15.72C168.364 15.3893 168.449 15.1387 168.62 14.968C168.801 14.7973 169.052 14.712 169.372 14.712C169.692 14.712 169.937 14.7973 170.108 14.968C170.278 15.1387 170.364 15.3893 170.364 15.72V17.176H172.06C172.316 17.176 172.513 17.24 172.652 17.368C172.79 17.496 172.86 17.6827 172.86 17.928C172.86 18.1627 172.79 18.3493 172.652 18.488C172.513 18.616 172.316 18.68 172.06 18.68H170.364V21.976C170.364 22.488 170.476 22.872 170.7 23.128C170.924 23.384 171.286 23.512 171.788 23.512C171.969 23.512 172.129 23.496 172.268 23.464C172.406 23.432 172.529 23.4107 172.636 23.4C172.764 23.3893 172.87 23.432 172.956 23.528C173.041 23.6133 173.084 23.7947 173.084 24.072C173.084 24.2853 173.046 24.4773 172.972 24.648C172.908 24.808 172.785 24.92 172.604 24.984C172.465 25.0267 172.284 25.064 172.06 25.096C171.836 25.1387 171.638 25.16 171.468 25.16ZM177.802 25.16C176.917 25.16 176.154 24.9947 175.514 24.664C174.874 24.3333 174.378 23.864 174.026 23.256C173.685 22.648 173.514 21.928 173.514 21.096C173.514 20.2853 173.68 19.576 174.01 18.968C174.352 18.36 174.816 17.8853 175.402 17.544C176 17.192 176.677 17.016 177.434 17.016C177.989 17.016 178.485 17.1067 178.922 17.288C179.37 17.4693 179.749 17.7307 180.058 18.072C180.378 18.4133 180.618 18.8293 180.778 19.32C180.949 19.8 181.034 20.344 181.034 20.952C181.034 21.144 180.965 21.2933 180.826 21.4C180.698 21.496 180.512 21.544 180.266 21.544H175.13V20.392H179.626L179.37 20.632C179.37 20.1413 179.296 19.7307 179.146 19.4C179.008 19.0693 178.8 18.8187 178.522 18.648C178.256 18.4667 177.92 18.376 177.514 18.376C177.066 18.376 176.682 18.4827 176.362 18.696C176.053 18.8987 175.813 19.192 175.642 19.576C175.482 19.9493 175.402 20.3973 175.402 20.92V21.032C175.402 21.9067 175.605 22.5627 176.01 23C176.426 23.4267 177.034 23.64 177.834 23.64C178.112 23.64 178.421 23.608 178.762 23.544C179.114 23.4693 179.445 23.3467 179.754 23.176C179.978 23.048 180.176 22.9947 180.346 23.016C180.517 23.0267 180.65 23.0853 180.746 23.192C180.853 23.2987 180.917 23.432 180.938 23.592C180.96 23.7413 180.928 23.896 180.842 24.056C180.768 24.216 180.634 24.3547 180.442 24.472C180.069 24.7067 179.637 24.8827 179.146 25C178.666 25.1067 178.218 25.16 177.802 25.16ZM183.642 25.128C183.311 25.128 183.055 25.0427 182.874 24.872C182.703 24.6907 182.618 24.4347 182.618 24.104V18.056C182.618 17.7253 182.703 17.4747 182.874 17.304C183.045 17.1333 183.285 17.048 183.594 17.048C183.903 17.048 184.143 17.1333 184.314 17.304C184.485 17.4747 184.57 17.7253 184.57 18.056V19.064H184.41C184.559 18.424 184.853 17.9387 185.29 17.608C185.727 17.2773 186.309 17.08 187.034 17.016C187.258 16.9947 187.434 17.0533 187.562 17.192C187.701 17.32 187.781 17.5227 187.802 17.8C187.823 18.0667 187.759 18.2853 187.61 18.456C187.471 18.616 187.258 18.712 186.97 18.744L186.618 18.776C185.967 18.84 185.477 19.0427 185.146 19.384C184.815 19.7147 184.65 20.184 184.65 20.792V24.104C184.65 24.4347 184.565 24.6907 184.394 24.872C184.223 25.0427 183.973 25.128 183.642 25.128Z" fill="#5B7FA8"/>
</svg>
