<svg width="312" height="76" viewBox="0 0 312 76" fill="none" xmlns="http://www.w3.org/2000/svg">
<g filter="url(#filter0_d_51_3469)">
<path d="M16 20C16 15.5817 19.5817 12 24 12H288C292.418 12 296 15.5817 296 20V48C296 52.4183 292.418 56 288 56H24C19.5817 56 16 52.4183 16 48V20Z" fill="#3E5871" shape-rendering="crispEdges"/>
<path d="M101.212 39.128C100.924 39.128 100.684 39.064 100.492 38.936C100.311 38.7973 100.161 38.5947 100.044 38.328L95.868 28.952C95.7507 28.6853 95.7187 28.4507 95.772 28.248C95.8253 28.0453 95.9373 27.8853 96.108 27.768C96.2787 27.6507 96.4813 27.592 96.716 27.592C97.0253 27.592 97.2547 27.6613 97.404 27.8C97.564 27.928 97.6973 28.1253 97.804 28.392L101.596 37.176H100.908L104.684 28.376C104.801 28.12 104.94 27.928 105.1 27.8C105.26 27.6613 105.484 27.592 105.772 27.592C106.007 27.592 106.199 27.6507 106.348 27.768C106.508 27.8853 106.609 28.0453 106.652 28.248C106.695 28.4507 106.657 28.6853 106.54 28.952L102.364 38.328C102.247 38.5947 102.097 38.7973 101.916 38.936C101.745 39.064 101.511 39.128 101.212 39.128ZM110.514 39.16C109.704 39.16 109 38.9947 108.402 38.664C107.805 38.3333 107.341 37.864 107.01 37.256C106.68 36.6373 106.514 35.912 106.514 35.08C106.514 34.4507 106.605 33.8907 106.786 33.4C106.978 32.8987 107.25 32.472 107.602 32.12C107.954 31.7573 108.376 31.4853 108.866 31.304C109.357 31.112 109.906 31.016 110.514 31.016C111.325 31.016 112.029 31.1813 112.626 31.512C113.224 31.8427 113.688 32.312 114.018 32.92C114.349 33.528 114.514 34.248 114.514 35.08C114.514 35.7093 114.418 36.2747 114.226 36.776C114.045 37.2773 113.778 37.7093 113.426 38.072C113.074 38.424 112.653 38.696 112.162 38.888C111.672 39.0693 111.122 39.16 110.514 39.16ZM110.514 37.64C110.909 37.64 111.256 37.544 111.554 37.352C111.853 37.16 112.082 36.8773 112.242 36.504C112.413 36.12 112.498 35.6453 112.498 35.08C112.498 34.2267 112.317 33.592 111.954 33.176C111.592 32.7493 111.112 32.536 110.514 32.536C110.12 32.536 109.773 32.632 109.474 32.824C109.176 33.0053 108.941 33.288 108.77 33.672C108.61 34.0453 108.53 34.5147 108.53 35.08C108.53 35.9227 108.712 36.5627 109.074 37C109.437 37.4267 109.917 37.64 110.514 37.64ZM117.157 39.112C116.837 39.112 116.592 39.016 116.421 38.824C116.25 38.632 116.165 38.3653 116.165 38.024V32.152C116.165 31.8 116.25 31.5333 116.421 31.352C116.592 31.16 116.837 31.064 117.157 31.064C117.477 31.064 117.722 31.16 117.893 31.352C118.074 31.5333 118.165 31.8 118.165 32.152V38.024C118.165 38.3653 118.08 38.632 117.909 38.824C117.738 39.016 117.488 39.112 117.157 39.112ZM117.157 29.576C116.784 29.576 116.49 29.4853 116.277 29.304C116.074 29.112 115.973 28.8507 115.973 28.52C115.973 28.1787 116.074 27.9173 116.277 27.736C116.49 27.5547 116.784 27.464 117.157 27.464C117.541 27.464 117.834 27.5547 118.037 27.736C118.24 27.9173 118.341 28.1787 118.341 28.52C118.341 28.8507 118.24 29.112 118.037 29.304C117.834 29.4853 117.541 29.576 117.157 29.576ZM121.267 39.128C120.936 39.128 120.68 39.0427 120.499 38.872C120.328 38.6907 120.243 38.4347 120.243 38.104V32.056C120.243 31.7253 120.328 31.4747 120.499 31.304C120.67 31.1333 120.91 31.048 121.219 31.048C121.528 31.048 121.768 31.1333 121.939 31.304C122.11 31.4747 122.195 31.7253 122.195 32.056V33.064H122.035C122.184 32.424 122.478 31.9387 122.915 31.608C123.352 31.2773 123.934 31.08 124.659 31.016C124.883 30.9947 125.059 31.0533 125.187 31.192C125.326 31.32 125.406 31.5227 125.427 31.8C125.448 32.0667 125.384 32.2853 125.235 32.456C125.096 32.616 124.883 32.712 124.595 32.744L124.243 32.776C123.592 32.84 123.102 33.0427 122.771 33.384C122.44 33.7147 122.275 34.184 122.275 34.792V38.104C122.275 38.4347 122.19 38.6907 122.019 38.872C121.848 39.0427 121.598 39.128 121.267 39.128ZM131.877 39.128C131.557 39.128 131.311 39.0427 131.141 38.872C130.97 38.6907 130.885 38.4347 130.885 38.104V32.056C130.885 31.7253 130.97 31.4747 131.141 31.304C131.311 31.1333 131.551 31.048 131.861 31.048C132.17 31.048 132.41 31.1333 132.581 31.304C132.751 31.4747 132.837 31.7253 132.837 32.056V33.224L132.661 32.744C132.874 32.2107 133.205 31.7893 133.653 31.48C134.101 31.1707 134.634 31.016 135.253 31.016C135.882 31.016 136.399 31.1653 136.805 31.464C137.21 31.7627 137.493 32.2213 137.653 32.84H137.429C137.642 32.2747 137.994 31.832 138.485 31.512C138.975 31.1813 139.541 31.016 140.181 31.016C140.778 31.016 141.269 31.1333 141.653 31.368C142.047 31.6027 142.341 31.96 142.533 32.44C142.725 32.9093 142.821 33.5067 142.821 34.232V38.104C142.821 38.4347 142.73 38.6907 142.549 38.872C142.378 39.0427 142.133 39.128 141.813 39.128C141.493 39.128 141.247 39.0427 141.077 38.872C140.906 38.6907 140.821 38.4347 140.821 38.104V34.312C140.821 33.7147 140.719 33.2773 140.517 33C140.325 32.7227 139.994 32.584 139.525 32.584C139.002 32.584 138.591 32.7707 138.293 33.144C137.994 33.5067 137.845 34.0133 137.845 34.664V38.104C137.845 38.4347 137.759 38.6907 137.589 38.872C137.418 39.0427 137.173 39.128 136.853 39.128C136.533 39.128 136.282 39.0427 136.101 38.872C135.93 38.6907 135.845 38.4347 135.845 38.104V34.312C135.845 33.7147 135.743 33.2773 135.541 33C135.349 32.7227 135.023 32.584 134.565 32.584C134.042 32.584 133.631 32.7707 133.333 33.144C133.034 33.5067 132.885 34.0133 132.885 34.664V38.104C132.885 38.7867 132.549 39.128 131.877 39.128ZM148.74 39.16C147.854 39.16 147.092 38.9947 146.452 38.664C145.812 38.3333 145.316 37.864 144.964 37.256C144.622 36.648 144.452 35.928 144.452 35.096C144.452 34.2853 144.617 33.576 144.948 32.968C145.289 32.36 145.753 31.8853 146.34 31.544C146.937 31.192 147.614 31.016 148.372 31.016C148.926 31.016 149.422 31.1067 149.86 31.288C150.308 31.4693 150.686 31.7307 150.996 32.072C151.316 32.4133 151.556 32.8293 151.716 33.32C151.886 33.8 151.972 34.344 151.972 34.952C151.972 35.144 151.902 35.2933 151.764 35.4C151.636 35.496 151.449 35.544 151.204 35.544H146.068V34.392H150.564L150.308 34.632C150.308 34.1413 150.233 33.7307 150.084 33.4C149.945 33.0693 149.737 32.8187 149.46 32.648C149.193 32.4667 148.857 32.376 148.452 32.376C148.004 32.376 147.62 32.4827 147.3 32.696C146.99 32.8987 146.75 33.192 146.58 33.576C146.42 33.9493 146.34 34.3973 146.34 34.92V35.032C146.34 35.9067 146.542 36.5627 146.948 37C147.364 37.4267 147.972 37.64 148.772 37.64C149.049 37.64 149.358 37.608 149.7 37.544C150.052 37.4693 150.382 37.3467 150.692 37.176C150.916 37.048 151.113 36.9947 151.284 37.016C151.454 37.0267 151.588 37.0853 151.684 37.192C151.79 37.2987 151.854 37.432 151.876 37.592C151.897 37.7413 151.865 37.896 151.78 38.056C151.705 38.216 151.572 38.3547 151.38 38.472C151.006 38.7067 150.574 38.8827 150.084 39C149.604 39.1067 149.156 39.16 148.74 39.16ZM156.42 39.16C155.961 39.16 155.476 39.112 154.964 39.016C154.452 38.92 153.993 38.7547 153.588 38.52C153.417 38.4133 153.294 38.2907 153.22 38.152C153.156 38.0027 153.129 37.8587 153.14 37.72C153.161 37.5707 153.214 37.4427 153.3 37.336C153.396 37.2293 153.513 37.16 153.652 37.128C153.801 37.096 153.961 37.1227 154.132 37.208C154.558 37.4107 154.958 37.5547 155.332 37.64C155.705 37.7147 156.073 37.752 156.436 37.752C156.948 37.752 157.326 37.6667 157.572 37.496C157.828 37.3147 157.956 37.08 157.956 36.792C157.956 36.5467 157.87 36.36 157.7 36.232C157.54 36.0933 157.294 35.992 156.964 35.928L155.364 35.624C154.702 35.496 154.196 35.256 153.844 34.904C153.502 34.5413 153.332 34.0773 153.332 33.512C153.332 33 153.47 32.5573 153.748 32.184C154.036 31.8107 154.43 31.5227 154.932 31.32C155.433 31.1173 156.009 31.016 156.66 31.016C157.129 31.016 157.566 31.0693 157.972 31.176C158.388 31.272 158.788 31.4267 159.172 31.64C159.332 31.7253 159.438 31.8373 159.492 31.976C159.556 32.1147 159.572 32.2587 159.54 32.408C159.508 32.5467 159.444 32.6747 159.348 32.792C159.252 32.8987 159.129 32.968 158.98 33C158.841 33.0213 158.681 32.9893 158.5 32.904C158.169 32.7333 157.849 32.6107 157.54 32.536C157.241 32.4613 156.953 32.424 156.676 32.424C156.153 32.424 155.764 32.5147 155.508 32.696C155.262 32.8773 155.14 33.1173 155.14 33.416C155.14 33.64 155.214 33.8267 155.364 33.976C155.513 34.1253 155.742 34.2267 156.052 34.28L157.652 34.584C158.345 34.712 158.868 34.9467 159.22 35.288C159.582 35.6293 159.764 36.088 159.764 36.664C159.764 37.4427 159.46 38.056 158.852 38.504C158.244 38.9413 157.433 39.16 156.42 39.16ZM166.704 42.008C166.384 42.008 166.139 41.9227 165.968 41.752C165.797 41.5813 165.712 41.3307 165.712 41V32.056C165.712 31.7253 165.797 31.4747 165.968 31.304C166.139 31.1333 166.379 31.048 166.688 31.048C167.008 31.048 167.253 31.1333 167.424 31.304C167.595 31.4747 167.68 31.7253 167.68 32.056V33.304L167.504 32.824C167.664 32.28 167.989 31.8427 168.48 31.512C168.981 31.1813 169.563 31.016 170.224 31.016C170.907 31.016 171.504 31.1813 172.016 31.512C172.539 31.8427 172.944 32.312 173.232 32.92C173.52 33.5173 173.664 34.2373 173.664 35.08C173.664 35.912 173.52 36.6373 173.232 37.256C172.944 37.864 172.544 38.3333 172.032 38.664C171.52 38.9947 170.917 39.16 170.224 39.16C169.573 39.16 169.003 39 168.512 38.68C168.021 38.3493 167.691 37.9227 167.52 37.4H167.712V41C167.712 41.3307 167.621 41.5813 167.44 41.752C167.269 41.9227 167.024 42.008 166.704 42.008ZM169.664 37.64C170.059 37.64 170.405 37.544 170.704 37.352C171.003 37.16 171.232 36.8773 171.392 36.504C171.563 36.12 171.648 35.6453 171.648 35.08C171.648 34.2267 171.467 33.592 171.104 33.176C170.741 32.7493 170.261 32.536 169.664 32.536C169.269 32.536 168.923 32.632 168.624 32.824C168.325 33.0053 168.091 33.288 167.92 33.672C167.76 34.0453 167.68 34.5147 167.68 35.08C167.68 35.9227 167.861 36.5627 168.224 37C168.587 37.4267 169.067 37.64 169.664 37.64ZM176.33 39.128C175.999 39.128 175.743 39.0427 175.562 38.872C175.391 38.6907 175.306 38.4347 175.306 38.104V32.056C175.306 31.7253 175.391 31.4747 175.562 31.304C175.732 31.1333 175.972 31.048 176.282 31.048C176.591 31.048 176.831 31.1333 177.002 31.304C177.172 31.4747 177.258 31.7253 177.258 32.056V33.064H177.098C177.247 32.424 177.54 31.9387 177.978 31.608C178.415 31.2773 178.996 31.08 179.722 31.016C179.946 30.9947 180.122 31.0533 180.25 31.192C180.388 31.32 180.468 31.5227 180.49 31.8C180.511 32.0667 180.447 32.2853 180.298 32.456C180.159 32.616 179.946 32.712 179.658 32.744L179.306 32.776C178.655 32.84 178.164 33.0427 177.834 33.384C177.503 33.7147 177.338 34.184 177.338 34.792V38.104C177.338 38.4347 177.252 38.6907 177.082 38.872C176.911 39.0427 176.66 39.128 176.33 39.128ZM185.014 39.16C184.204 39.16 183.5 38.9947 182.902 38.664C182.305 38.3333 181.841 37.864 181.51 37.256C181.18 36.6373 181.014 35.912 181.014 35.08C181.014 34.4507 181.105 33.8907 181.286 33.4C181.478 32.8987 181.75 32.472 182.102 32.12C182.454 31.7573 182.876 31.4853 183.366 31.304C183.857 31.112 184.406 31.016 185.014 31.016C185.825 31.016 186.529 31.1813 187.126 31.512C187.724 31.8427 188.188 32.312 188.518 32.92C188.849 33.528 189.014 34.248 189.014 35.08C189.014 35.7093 188.918 36.2747 188.726 36.776C188.545 37.2773 188.278 37.7093 187.926 38.072C187.574 38.424 187.153 38.696 186.662 38.888C186.172 39.0693 185.622 39.16 185.014 39.16ZM185.014 37.64C185.409 37.64 185.756 37.544 186.054 37.352C186.353 37.16 186.582 36.8773 186.742 36.504C186.913 36.12 186.998 35.6453 186.998 35.08C186.998 34.2267 186.817 33.592 186.454 33.176C186.092 32.7493 185.612 32.536 185.014 32.536C184.62 32.536 184.273 32.632 183.974 32.824C183.676 33.0053 183.441 33.288 183.27 33.672C183.11 34.0453 183.03 34.5147 183.03 35.08C183.03 35.9227 183.212 36.5627 183.574 37C183.937 37.4267 184.417 37.64 185.014 37.64ZM189.705 42.024C189.47 42.0453 189.278 42.008 189.129 41.912C188.98 41.8267 188.878 41.7147 188.825 41.576C188.761 41.4373 188.74 41.2933 188.761 41.144C188.782 40.9947 188.846 40.8613 188.953 40.744C189.049 40.6373 189.182 40.5787 189.353 40.568C189.833 40.5253 190.18 40.3867 190.393 40.152C190.617 39.928 190.729 39.5813 190.729 39.112V32.056C190.729 31.7253 190.814 31.4747 190.985 31.304C191.166 31.1333 191.417 31.048 191.737 31.048C192.057 31.048 192.302 31.1333 192.473 31.304C192.644 31.4747 192.729 31.7253 192.729 32.056V38.936C192.729 39.6187 192.617 40.1787 192.393 40.616C192.18 41.0533 191.849 41.384 191.401 41.608C190.964 41.832 190.398 41.9707 189.705 42.024ZM191.721 29.576C191.348 29.576 191.054 29.4853 190.841 29.304C190.638 29.112 190.537 28.8507 190.537 28.52C190.537 28.1787 190.638 27.9173 190.841 27.736C191.054 27.5547 191.348 27.464 191.721 27.464C192.105 27.464 192.398 27.5547 192.601 27.736C192.804 27.9173 192.905 28.1787 192.905 28.52C192.905 28.8507 192.804 29.112 192.601 29.304C192.398 29.4853 192.105 29.576 191.721 29.576ZM198.662 39.16C197.776 39.16 197.014 38.9947 196.374 38.664C195.734 38.3333 195.238 37.864 194.886 37.256C194.544 36.648 194.374 35.928 194.374 35.096C194.374 34.2853 194.539 33.576 194.87 32.968C195.211 32.36 195.675 31.8853 196.262 31.544C196.859 31.192 197.536 31.016 198.294 31.016C198.848 31.016 199.344 31.1067 199.782 31.288C200.23 31.4693 200.608 31.7307 200.918 32.072C201.238 32.4133 201.478 32.8293 201.638 33.32C201.808 33.8 201.894 34.344 201.894 34.952C201.894 35.144 201.824 35.2933 201.686 35.4C201.558 35.496 201.371 35.544 201.126 35.544H195.99V34.392H200.486L200.23 34.632C200.23 34.1413 200.155 33.7307 200.006 33.4C199.867 33.0693 199.659 32.8187 199.382 32.648C199.115 32.4667 198.779 32.376 198.374 32.376C197.926 32.376 197.542 32.4827 197.222 32.696C196.912 32.8987 196.672 33.192 196.502 33.576C196.342 33.9493 196.262 34.3973 196.262 34.92V35.032C196.262 35.9067 196.464 36.5627 196.87 37C197.286 37.4267 197.894 37.64 198.694 37.64C198.971 37.64 199.28 37.608 199.622 37.544C199.974 37.4693 200.304 37.3467 200.614 37.176C200.838 37.048 201.035 36.9947 201.206 37.016C201.376 37.0267 201.51 37.0853 201.606 37.192C201.712 37.2987 201.776 37.432 201.798 37.592C201.819 37.7413 201.787 37.896 201.702 38.056C201.627 38.216 201.494 38.3547 201.302 38.472C200.928 38.7067 200.496 38.8827 200.006 39C199.526 39.1067 199.078 39.16 198.662 39.16ZM207.03 39.16C206.337 39.16 205.756 39.0427 205.286 38.808C204.828 38.5733 204.486 38.232 204.262 37.784C204.038 37.3253 203.926 36.76 203.926 36.088V32.68H203.094C202.838 32.68 202.641 32.616 202.502 32.488C202.364 32.3493 202.294 32.1627 202.294 31.928C202.294 31.6827 202.364 31.496 202.502 31.368C202.641 31.24 202.838 31.176 203.094 31.176H203.926V29.72C203.926 29.3893 204.012 29.1387 204.182 28.968C204.364 28.7973 204.614 28.712 204.934 28.712C205.254 28.712 205.5 28.7973 205.67 28.968C205.841 29.1387 205.926 29.3893 205.926 29.72V31.176H207.622C207.878 31.176 208.076 31.24 208.214 31.368C208.353 31.496 208.422 31.6827 208.422 31.928C208.422 32.1627 208.353 32.3493 208.214 32.488C208.076 32.616 207.878 32.68 207.622 32.68H205.926V35.976C205.926 36.488 206.038 36.872 206.262 37.128C206.486 37.384 206.849 37.512 207.35 37.512C207.532 37.512 207.692 37.496 207.83 37.464C207.969 37.432 208.092 37.4107 208.198 37.4C208.326 37.3893 208.433 37.432 208.518 37.528C208.604 37.6133 208.646 37.7947 208.646 38.072C208.646 38.2853 208.609 38.4773 208.534 38.648C208.47 38.808 208.348 38.92 208.166 38.984C208.028 39.0267 207.846 39.064 207.622 39.096C207.398 39.1387 207.201 39.16 207.03 39.16ZM212.451 39.16C211.992 39.16 211.507 39.112 210.995 39.016C210.483 38.92 210.024 38.7547 209.619 38.52C209.448 38.4133 209.326 38.2907 209.251 38.152C209.187 38.0027 209.16 37.8587 209.171 37.72C209.192 37.5707 209.246 37.4427 209.331 37.336C209.427 37.2293 209.544 37.16 209.683 37.128C209.832 37.096 209.992 37.1227 210.163 37.208C210.59 37.4107 210.99 37.5547 211.363 37.64C211.736 37.7147 212.104 37.752 212.467 37.752C212.979 37.752 213.358 37.6667 213.603 37.496C213.859 37.3147 213.987 37.08 213.987 36.792C213.987 36.5467 213.902 36.36 213.731 36.232C213.571 36.0933 213.326 35.992 212.995 35.928L211.395 35.624C210.734 35.496 210.227 35.256 209.875 34.904C209.534 34.5413 209.363 34.0773 209.363 33.512C209.363 33 209.502 32.5573 209.779 32.184C210.067 31.8107 210.462 31.5227 210.963 31.32C211.464 31.1173 212.04 31.016 212.691 31.016C213.16 31.016 213.598 31.0693 214.003 31.176C214.419 31.272 214.819 31.4267 215.203 31.64C215.363 31.7253 215.47 31.8373 215.523 31.976C215.587 32.1147 215.603 32.2587 215.571 32.408C215.539 32.5467 215.475 32.6747 215.379 32.792C215.283 32.8987 215.16 32.968 215.011 33C214.872 33.0213 214.712 32.9893 214.531 32.904C214.2 32.7333 213.88 32.6107 213.571 32.536C213.272 32.4613 212.984 32.424 212.707 32.424C212.184 32.424 211.795 32.5147 211.539 32.696C211.294 32.8773 211.171 33.1173 211.171 33.416C211.171 33.64 211.246 33.8267 211.395 33.976C211.544 34.1253 211.774 34.2267 212.083 34.28L213.683 34.584C214.376 34.712 214.899 34.9467 215.251 35.288C215.614 35.6293 215.795 36.088 215.795 36.664C215.795 37.4427 215.491 38.056 214.883 38.504C214.275 38.9413 213.464 39.16 212.451 39.16Z" fill="white"/>
</g>
<defs>
<filter id="filter0_d_51_3469" x="0" y="0" width="312" height="76" filterUnits="userSpaceOnUse" color-interpolation-filters="sRGB">
<feFlood flood-opacity="0" result="BackgroundImageFix"/>
<feColorMatrix in="SourceAlpha" type="matrix" values="0 0 0 0 0 0 0 0 0 0 0 0 0 0 0 0 0 0 127 0" result="hardAlpha"/>
<feOffset dy="4"/>
<feGaussianBlur stdDeviation="8"/>
<feComposite in2="hardAlpha" operator="out"/>
<feColorMatrix type="matrix" values="0 0 0 0 0.243137 0 0 0 0 0.345098 0 0 0 0 0.443137 0 0 0 0.313726 0"/>
<feBlend mode="normal" in2="BackgroundImageFix" result="effect1_dropShadow_51_3469"/>
<feBlend mode="normal" in="SourceGraphic" in2="effect1_dropShadow_51_3469" result="shape"/>
</filter>
</defs>
</svg>
