<svg width="276" xmlns="http://www.w3.org/2000/svg" height="286.199"
    id="logo-svg-icon" viewBox="-708 385 276 286.199"
    xmlns:xlink="http://www.w3.org/1999/xlink" version="1.1">
    <g id="shape-fb635dd4-7c79-8026-8007-a4ea4d14edc4">
        <g class="fills" id="fills-fb635dd4-7c79-8026-8007-a4ea4d14edc4">
            <path
                d="M-708,671.19873046875L-661,642.3914794921875L-660.59130859375,571.828125L-625,536.391357421875L-544.5,587.8634033203125L-507,559.391357421875L-588.1318359375,501.8172302246094L-509,426.7243957519531L-478.67578125,427.1965026855469L-478.2783203125,464.3083801269531L-432,492.3913879394531L-432,411.1986999511719L-460.25927734375,385.3292541503906L-549.17578125,385L-651,469.3913879394531C-651,469.1786804199219,-650,385.0371398925781,-650,385.0371398925781L-707,385.0371398925781L-708,671.19873046875M-548,500.3913879394531L-488.111328125,543.6134033203125L-488,574.391357421875L-541.22216796875,614.33544921875L-627.60546875,561.7303466796875L-644.234375,579.63427734375L-644.47802734375,609.267578125L-543.2490234375,670.718505859375L-432.09619140625,603.7945556640625L-432,508.3913879394531L-495,470.7804260253906L-517.5888671875,470.8906555175781L-548,500.3913879394531"
                style="stroke: none; fill: currentColor; fill-opacity: 1;" />
        </g>
    </g>
</svg>