<svg width="512" height="512" viewBox="0 0 512 512" fill="none" xmlns="http://www.w3.org/2000/svg">
<g clip-path="url(#clip0_9_2)">
<g clip-path="url(#clip1_9_2)">
<path d="M255.839 13.2785C256.71 6.70766 258.226 2.49038 258.226 2.49038C258.226 2.49038 417.546 -32.7194 447.648 161.665C438.838 221.814 486.561 237.951 493.168 274.628C499.776 311.304 481.421 303.235 477.75 333.31C474.079 363.384 501.245 356.049 504.181 385.39C507.118 414.731 488.763 413.997 488.763 433.802C488.763 453.608 530.612 493.218 459.395 510.089C430.027 492.484 381.571 508.622 368.355 438.204C333.848 429.402 341.189 378.788 341.189 378.788L382.992 141.57C382.992 141.57 371.292 102.25 304.48 80.9776C270.553 70.1749 259.155 50.1048 256.154 32.9647C253.649 50.5332 242.689 71.691 207.519 82.8882C140.707 104.16 124.555 142.304 124.555 142.304L170.81 380.699C170.81 380.699 178.151 431.312 143.644 440.114C130.428 510.533 81.9719 494.396 52.6036 512C-18.6134 495.129 23.236 455.519 23.236 435.714C23.236 415.908 4.88082 416.642 7.81749 387.301C10.7542 357.96 37.9194 365.296 34.2491 335.221C30.5781 305.146 12.2229 313.215 18.8306 276.539C25.4383 239.863 73.1611 223.725 64.351 163.576C94.453 -30.808 253.773 4.40174 253.773 4.40174C253.773 4.40174 254.999 7.81073 255.839 13.2785Z" fill="#9A6240"/>
<path d="M253.774 419.576C330.816 419.576 393.271 326.143 393.271 210.888C393.271 95.6332 330.816 2.20056 253.774 2.20056C176.732 2.20056 114.277 95.6332 114.277 210.888C114.277 326.143 176.732 419.576 253.774 419.576Z" fill="#FECEAE"/>
<path d="M117.948 198.052C117.948 198.052 103.264 189.983 95.1878 198.785C87.1114 207.587 68.0226 270.671 125.29 286.074C182.557 301.478 117.948 198.052 117.948 198.052Z" fill="#FECEAE"/>
<path d="M392.722 197.762C392.722 197.762 407.406 189.693 415.482 198.496C423.558 207.298 442.647 270.381 385.38 285.785C328.113 301.189 392.722 197.762 392.722 197.762Z" fill="#FECEAE"/>
<path d="M253.04 453.318H252.306H240.306C214.128 453.318 200.829 429.112 200.829 429.112C200.829 429.112 185.548 393.169 193.825 397.57C202.103 401.971 202.74 401.971 211.017 401.971C219.294 401.971 224.388 386.568 224.388 386.568V381.432C224.388 371.311 236.774 363.828 245.698 361.628H260.382C269.067 364.195 282.323 371.311 282.323 381.432V386.568C282.323 386.568 287.658 401.971 296.33 401.971C305.002 401.971 305.669 401.971 314.34 397.57C323.011 393.169 307.003 429.112 307.003 429.112C307.003 429.112 297.774 445.349 272.192 451.849C270.182 452.794 267.969 453.318 265.647 453.318H253.04Z" fill="#9D6341"/>
<path d="M198.633 306.074L243.554 297.878C244.717 297.665 245.952 297.916 246.987 298.574C248.022 299.232 248.773 300.243 249.074 301.386C250.277 305.957 249.583 310.678 247.144 314.511C244.705 318.343 240.72 320.973 236.067 321.822L188.515 330.499C188.05 330.584 187.556 330.484 187.141 330.221C186.727 329.958 186.427 329.553 186.307 329.096L185.626 326.511C184.423 321.94 185.117 317.219 187.556 313.386C189.995 309.553 193.98 306.923 198.633 306.074Z" fill="#9D6341"/>
<path d="M306.713 306.074L261.792 297.878C260.629 297.665 259.394 297.916 258.358 298.574C257.323 299.232 256.572 300.243 256.272 301.386C255.068 305.957 255.762 310.678 258.202 314.511C260.641 318.343 264.625 320.973 269.278 321.822L316.831 330.499C317.296 330.584 317.79 330.484 318.204 330.221C318.618 329.958 318.918 329.553 319.039 329.096L319.719 326.511C320.923 321.94 320.229 317.219 317.789 313.386C315.35 309.553 311.366 306.923 306.713 306.074Z" fill="#9D6341"/>
<path d="M142.911 174.06C142.911 169.404 148.05 167.092 151.353 165.625C151.353 165.625 158.871 163.14 174.085 161.957C184.018 161.184 179.142 161.179 189.075 161.957C204.125 163.135 211.558 165.625 211.558 165.625C214.862 167.092 220.001 169.404 220.001 174.06C220.001 178.716 216.218 182.495 211.558 182.495C211.558 182.495 204.232 179.986 189.394 178.828C179.179 178.03 184.195 178.04 173.979 178.828C158.835 179.996 151.353 182.495 151.353 182.495C146.694 182.495 142.911 178.716 142.911 174.06ZM174.085 161.957C184.018 161.184 179.142 161.179 189.075 161.957ZM189.394 178.828C179.179 178.03 184.195 178.04 173.979 178.828Z" fill="#9D6441"/>
<path d="M365.372 174.06C365.372 169.404 360.232 167.092 356.929 165.625C356.929 165.625 349.411 163.14 334.197 161.957C324.264 161.184 329.14 161.179 319.207 161.957C304.157 163.135 296.725 165.625 296.725 165.625C293.421 167.092 288.281 169.404 288.281 174.06C288.281 178.716 292.064 182.495 296.725 182.495C296.725 182.495 304.05 179.986 318.888 178.828C329.103 178.03 324.087 178.04 334.303 178.828C349.447 179.996 356.929 182.495 356.929 182.495C361.588 182.495 365.372 178.716 365.372 174.06ZM334.197 161.957C324.264 161.184 329.14 161.179 319.207 161.957ZM318.888 178.828C329.103 178.03 324.087 178.04 334.303 178.828Z" fill="#9D6441"/>
<path d="M128.959 117.364C128.959 117.364 191.997 113.801 255.766 57.5137C319.537 1.22666 293.149 4.78916 293.149 4.78916C293.149 4.78916 201.525 -9.46087 182.468 11.2011C163.41 31.8638 128.226 68.2012 128.226 91.714C128.226 115.226 128.959 117.364 128.959 117.364Z" fill="#9A6240"/>
<path d="M258.179 41.0775C258.179 41.0775 333.067 87.2895 378.588 90.9572C424.107 94.6249 333.067 14.6707 333.067 14.6707L273.597 3.66772L258.179 41.0775Z" fill="#9A6240"/>
<path d="M180.453 205.231L201.542 204.944C207.215 204.867 212.751 207.043 216.932 210.994C221.113 214.945 223.596 220.347 223.836 226.011L224.062 231.351C224.181 234.183 223.17 236.914 221.249 238.944C219.328 240.974 216.655 242.136 213.818 242.175L176.687 242.68C174.58 242.708 172.476 242.322 170.496 241.544C168.516 240.765 166.697 239.609 165.145 238.142C163.592 236.675 162.335 234.925 161.447 232.993C160.559 231.06 160.055 228.983 159.966 226.879C159.727 221.215 161.751 215.752 165.592 211.692C169.434 207.632 174.78 205.308 180.453 205.231Z" fill="white"/>
<path d="M209.429 218.078C209.061 209.374 201.695 202.414 192.978 202.532C184.261 202.651 177.493 209.803 177.861 218.507L178.295 228.76C178.663 237.464 186.029 244.424 194.746 244.306C203.463 244.187 210.231 237.035 209.863 228.331L209.429 218.078Z" fill="#7C8FA2"/>
<path d="M328.671 205.231L307.582 204.944C301.909 204.867 296.373 207.043 292.192 210.994C288.011 214.945 285.528 220.347 285.288 226.011L285.062 231.351C284.942 234.183 285.954 236.915 287.875 238.945C289.796 240.974 292.469 242.137 295.305 242.175L332.437 242.68C334.544 242.708 336.647 242.322 338.628 241.544C340.608 240.765 342.427 239.609 343.979 238.142C345.532 236.675 346.788 234.925 347.677 232.993C348.565 231.06 349.068 228.983 349.157 226.879C349.397 221.215 347.373 215.752 343.531 211.692C339.689 207.632 334.344 205.308 328.671 205.231Z" fill="white"/>
<path d="M296.758 218.076C297.126 209.372 304.492 202.412 313.209 202.531C321.926 202.649 328.694 209.801 328.326 218.505L327.892 228.759C327.524 237.463 320.158 244.423 311.441 244.304C302.724 244.186 295.956 237.034 296.324 228.33L296.758 218.076Z" fill="#7C8FA2"/>
<path d="M212.292 334.259C212.292 333.171 213.472 332.286 214.925 332.286H291.889C293.342 332.286 294.522 333.171 294.522 334.259C294.522 341.065 287.148 346.59 278.066 346.59H228.748C219.666 346.59 212.292 341.065 212.292 334.259Z" fill="#EEA8A0"/>
</g>
</g>
<defs>
<clipPath id="clip0_9_2">
<rect width="497" height="512" fill="white" transform="translate(7.5)"/>
</clipPath>
<clipPath id="clip1_9_2">
<rect width="497" height="512" fill="white" transform="translate(7.5)"/>
</clipPath>
</defs>
</svg>
