<svg xmlns="http://www.w3.org/2000/svg" version="1.1" xmlns:xlink="http://www.w3.org/1999/xlink"
    width="647" height="667">
    <svg width="647" xmlns="http://www.w3.org/2000/svg" height="667" id="SvgjsSvg1418"
        viewBox="0 -0 647 667" xmlns:xlink="http://www.w3.org/1999/xlink" fill="none" version="1.1">
        <g id="SvgjsG1417">
            <g class="frame-container-wrapper">
                <g class="frame-container-blur">
                    <g class="frame-container-shadows">
                        <g fill="none">
                            <g class="fills" id="SvgjsG1416">
                                <rect rx="0" ry="0" x="0" y="0" width="647"
                                    height="667.0000000000001"
                                    transform="matrix(1.000000, 0.000000, 0.000000, 1.000000, 0.000000, 0.000000)"
                                    class="frame-background"></rect>
                            </g>
                            <g class="frame-children">
                                <g id="SvgjsG1415" rx="0" ry="0">
                                    <g id="SvgjsG1414">
                                        <g class="fills" id="SvgjsG1413">
                                            <path
                                                d="M323.291,17.298C324.425,8.738,326.398,3.244,326.398,3.244C326.398,3.244,533.803,-42.625,572.990,210.606C561.521,288.964,623.647,309.987,632.249,357.767C640.851,405.546,616.956,395.035,612.177,434.214C607.399,473.393,642.763,463.837,646.586,502.060C650.409,540.284,626.514,539.328,626.514,565.129C626.514,590.930,680.994,642.532,588.283,664.510C550.051,641.576,486.970,662.599,469.765,570.863C424.844,559.396,434.401,493.460,434.401,493.460L488.820,184.428C488.820,184.428,473.589,133.204,386.612,105.492C342.446,91.419,327.608,65.273,323.701,42.944C320.440,65.831,306.172,93.394,260.388,107.981C173.411,135.693,152.384,185.384,152.384,185.384L212.599,495.950C212.599,495.950,222.156,561.885,177.235,573.352C160.030,665.089,96.949,644.066,58.717,667.000C-33.994,645.021,20.486,593.420,20.486,567.619C20.486,541.818,-3.409,542.774,0.414,504.550C4.237,466.327,39.601,475.883,34.823,436.703C30.044,397.524,6.149,408.036,14.751,360.256C23.353,312.477,85.479,291.454,74.010,213.096C113.197,-40.135,320.602,5.734,320.602,5.734C320.602,5.734,322.197,10.175,323.291,17.298Z"
                                                style="fill: rgb(154, 98, 64); fill-opacity: 1;"></path>
                                        </g>
                                    </g>
                                    <g id="SvgjsG1412" rx="0" ry="0">
                                        <g id="SvgjsG1411">
                                            <g class="fills" id="SvgjsG1410">
                                                <ellipse cx="320.6023024129395"
                                                    cy="274.7313753581666" rx="181.5991629168334"
                                                    ry="271.8646131805159"
                                                    transform="matrix(1.000000, 0.000000, 0.000000, 1.000000, 0.000000, 0.000000)"
                                                    style="fill: rgb(254, 206, 174); fill-opacity: 1;"></ellipse>
                                            </g>
                                        </g>
                                        <g id="SvgjsG1409">
                                            <g class="fills" id="SvgjsG1408">
                                                <path
                                                    d="M143.782,258.009C143.782,258.009,124.666,247.497,114.153,258.964C103.639,270.431,78.789,352.612,153.340,372.679C227.891,392.746,143.782,258.009,143.782,258.009Z"
                                                    style="fill: rgb(254, 206, 174); fill-opacity: 1;"></path>
                                            </g>
                                        </g>
                                        <g id="SvgjsG1407">
                                            <g class="fills" id="SvgjsG1406">
                                                <path
                                                    d="M501.486,257.632C501.486,257.632,520.602,247.120,531.115,258.587C541.629,270.054,566.479,352.235,491.928,372.302C417.377,392.369,501.486,257.632,501.486,257.632Z"
                                                    style="fill: rgb(254, 206, 174); fill-opacity: 1;"></path>
                                            </g>
                                        </g>
                                    </g>
                                    <g id="SvgjsG1405">
                                        <g class="fills" id="SvgjsG1404">
                                            <path
                                                d="M319.647,590.553L318.691,590.553L318.691,590.553L303.069,590.553C268.990,590.553,251.678,559.019,251.678,559.019C251.678,559.019,231.785,512.195,242.560,517.928C253.336,523.662,254.165,523.662,264.940,523.662C275.716,523.662,282.347,503.595,282.347,503.595L282.347,496.905C282.347,483.720,298.471,473.971,310.089,471.105L329.204,471.105C340.511,474.449,357.767,483.720,357.767,496.905L357.767,503.595C357.767,503.595,364.713,523.662,376.002,523.662C387.291,523.662,388.159,523.662,399.448,517.928C410.736,512.195,389.896,559.019,389.896,559.019C389.896,559.019,377.882,580.172,344.579,588.639C341.962,589.871,339.082,590.553,336.058,590.553L319.647,590.553Z"
                                                style="fill: rgb(157, 99, 65); fill-opacity: 1;"></path>
                                        </g>
                                    </g>
                                    <g id="SvgjsG1403" rx="0" ry="0">
                                        <g id="SvgjsG1402">
                                            <g class="fills" id="SvgjsG1401">
                                                <path
                                                    d="M252.16863113133823,394.4809648075749 h59.445398901353194 a5.804175681554716,5.804175681554716 0 0 1 5.804175681554716,5.804175681554716 v0 a23.216702726218863,23.216702726218863 0 0 1 -23.216702726218863,23.216702726218863 h-62.927904310286024 a2.321670272621886,2.321670272621886 0 0 1 -2.321670272621886,-2.321670272621886 v-3.4825054089328304 a23.216702726218863,23.216702726218863 0 0 1 23.216702726218863,-23.216702726218863 z"
                                                    x="228.95192840511936" y="394.4809648075749"
                                                    transform="matrix(0.983734, -0.179629, 0.254426, 0.967092, -99.614397, 62.531051)"
                                                    width="88.46627730912678"
                                                    height="29.02087840777358"
                                                    style="fill: rgb(157, 99, 65); fill-opacity: 1;"></path>
                                            </g>
                                        </g>
                                        <g id="SvgjsG1400">
                                            <g class="fills" id="SvgjsG1399">
                                                <path
                                                    d="M344.13574663390244,394.4809648075751 h59.44539890135252 a5.80417568155467,5.80417568155467 0 0 1 5.80417568155467,5.80417568155467 v0 a23.21670272621868,23.21670272621868 0 0 1 -23.21670272621868,23.21670272621868 h-62.92790431028532 a2.3216702726218683,2.3216702726218683 0 0 1 -2.3216702726218683,-2.3216702726218683 v-3.482505408932802 a23.21670272621868,23.21670272621868 0 0 1 23.21670272621868,-23.21670272621868 z"
                                                    x="320.9190439076838" y="394.4809648075751"
                                                    transform="matrix(-0.983734, -0.179629, -0.254426, 0.967092, 828.422857, 79.051056)"
                                                    width="88.46627730912587"
                                                    height="29.020878407773353"
                                                    style="fill: rgb(157, 99, 65); fill-opacity: 1;"></path>
                                            </g>
                                        </g>
                                    </g>
                                    <g id="SvgjsG1398" rx="0" ry="0">
                                        <g id="SvgjsG1397">
                                            <g class="fills" id="SvgjsG1396">
                                                <path
                                                    d="M176.279,226.754C176.279,220.689,182.969,217.676,187.270,215.765C187.270,215.765,197.056,212.528,216.862,210.987C229.793,209.980,223.446,209.973,236.376,210.987C255.968,212.522,265.645,215.765,265.645,215.765C269.946,217.676,276.636,220.689,276.636,226.754L276.636,226.754C276.636,232.819,271.711,237.743,265.645,237.743C265.645,237.743,256.108,234.474,236.792,232.965C223.494,231.926,230.023,231.939,216.724,232.965C197.009,234.487,187.270,237.743,187.270,237.743C181.204,237.743,176.279,232.819,176.279,226.754ZL176.279,226.754ZM216.862,210.987C229.793,209.980,223.446,209.973,236.376,210.987M216.724,232.965C230.023,231.939,223.494,231.926,236.792,232.965"
                                                    style="fill: rgb(157, 100, 65); fill-opacity: 1;"></path>
                                            </g>
                                        </g>
                                        <g id="SvgjsG1395">
                                            <g class="fills" id="SvgjsG1394">
                                                <path
                                                    d="M465.882,226.754C465.882,220.689,459.191,217.676,454.890,215.765C454.890,215.765,445.104,212.528,425.298,210.987C412.367,209.980,418.714,209.973,405.784,210.987C386.192,212.522,376.516,215.765,376.516,215.765C372.215,217.676,365.524,220.689,365.524,226.754L365.524,226.754C365.524,232.819,370.449,237.743,376.516,237.743C376.516,237.743,386.052,234.474,405.369,232.965C418.666,231.926,412.137,231.939,425.436,232.965C445.151,234.487,454.890,237.743,454.890,237.743C460.956,237.743,465.882,232.819,465.882,226.754ZL465.882,226.754ZM425.298,210.987C412.367,209.980,418.714,209.973,405.784,210.987M425.436,232.965C412.137,231.939,418.666,231.926,405.369,232.965"
                                                    style="fill: rgb(157, 100, 65); fill-opacity: 1;"></path>
                                            </g>
                                        </g>
                                    </g>
                                    <g id="SvgjsG1393" rx="0" ry="0">
                                        <g id="SvgjsG1392">
                                            <g class="fills" id="SvgjsG1391">
                                                <path
                                                    d="M158.117,152.894C158.117,152.894,240.180,148.253,323.196,74.925C406.213,1.598,371.861,6.239,371.861,6.239C371.861,6.239,252.584,-12.325,227.775,14.592C202.965,41.510,157.163,88.848,157.163,119.479C157.163,150.109,158.117,152.894,158.117,152.894Z"
                                                    style="fill: rgb(154, 98, 64); fill-opacity: 1;"></path>
                                            </g>
                                        </g>
                                        <g id="SvgjsG1390">
                                            <g class="fills" id="SvgjsG1389">
                                                <path
                                                    d="M326.337,53.513C326.337,53.513,423.827,113.715,483.086,118.493C542.344,123.271,423.827,19.112,423.827,19.112L346.408,4.778L326.337,53.513Z"
                                                    style="fill: rgb(154, 98, 64); fill-opacity: 1;"></path>
                                            </g>
                                        </g>
                                    </g>
                                    <g id="SvgjsG1388">
                                        <defs>
                                            <clipPath id="SvgjsClipPath1387"
                                                class="frame-clip frame-clip-def">
                                                <path
                                                    d="M226.18014735667214,267.15258645889014 h27.456183439554223 a27.848557146471776,27.848557146471776 0 0 1 27.848557146471776,27.848557146471776 v6.962139286617948 a13.924278573235888,13.924278573235888 0 0 1 -13.924278573235888,13.924278573235888 h-48.34260129940806 a20.886417859853832,20.886417859853832 0 0 1 -20.886417859853832,-20.886417859853832 v-3.552713678800501e-15 a27.848557146471776,27.848557146471776 0 0 1 27.848557146471776,-27.848557146471776 z"
                                                    x="198.33159021020037" y="267.15258645889014"
                                                    width="83.15329773249778"
                                                    height="48.73497500632561"
                                                    transform="matrix(0.999908, -0.013600, 0.042245, 0.999107, -12.293106, 3.523085)"></path>
                                            </clipPath>
                                        </defs>
                                        <g class="frame-container-wrapper">
                                            <g class="frame-container-blur">
                                                <g class="frame-container-shadows">
                                                    <g
                                                        clip-path="url(#frame-clip-7df903a0-afba-80e7-8006-343951fa6e26-render-18)"
                                                        fill="none">
                                                        <g class="fills" id="SvgjsG1386">
                                                            <path
                                                                d="M226.18014735667214,267.15258645889014 h27.456183439554223 a27.848557146471776,27.848557146471776 0 0 1 27.848557146471776,27.848557146471776 v6.962139286617948 a13.924278573235888,13.924278573235888 0 0 1 -13.924278573235888,13.924278573235888 h-48.34260129940806 a20.886417859853832,20.886417859853832 0 0 1 -20.886417859853832,-20.886417859853832 v-3.552713678800501e-15 a27.848557146471776,27.848557146471776 0 0 1 27.848557146471776,-27.848557146471776 z"
                                                                x="198.33159021020037"
                                                                y="267.15258645889014"
                                                                width="83.15329773249778"
                                                                height="48.73497500632561"
                                                                transform="matrix(0.999908, -0.013600, 0.042245, 0.999107, -12.293106, 3.523085)"
                                                                class="frame-background"
                                                                style="fill: rgb(255, 255, 255); fill-opacity: 1;"></path>
                                                        </g>
                                                        <g class="frame-children">
                                                            <g id="SvgjsG1385">
                                                                <defs>
                                                                    <clipPath id="SvgjsClipPath1384"
                                                                        class="frame-clip frame-clip-def">
                                                                        <rect
                                                                            rx="20.549378175272068"
                                                                            ry="20.549378175272068"
                                                                            x="222.0586290428255"
                                                                            y="263.8212900687487"
                                                                            width="41.098756350544136"
                                                                            height="54.46850147765758"
                                                                            transform="matrix(0.999908, -0.013600, 0.042245, 0.999107, -12.273232, 3.559388)"></rect>
                                                                    </clipPath>
                                                                </defs>
                                                                <g class="frame-container-wrapper">
                                                                    <g class="frame-container-blur">
                                                                        <g
                                                                            class="frame-container-shadows">
                                                                            <g
                                                                                clip-path="url(#frame-clip-7df903a0-afba-80e7-8006-3439c3a1f86c-render-19)"
                                                                                fill="none">
                                                                                <g class="fills"
                                                                                    id="SvgjsG1383">
                                                                                    <rect
                                                                                        width="41.098756350544136"
                                                                                        height="54.46850147765758"
                                                                                        class="frame-background"
                                                                                        x="222.0586290428255"
                                                                                        transform="matrix(0.999908, -0.013600, 0.042245, 0.999107, -12.273232, 3.559388)"
                                                                                        style="fill: rgb(124, 143, 162); fill-opacity: 1;"
                                                                                        ry="20.549378175272068"
                                                                                        rx="20.549378175272068"
                                                                                        y="263.8212900687487"></rect>
                                                                                </g>
                                                                                <g
                                                                                    class="frame-children"></g>
                                                                            </g>
                                                                        </g>
                                                                    </g>
                                                                </g>
                                                            </g>
                                                        </g>
                                                    </g>
                                                </g>
                                            </g>
                                        </g>
                                    </g>
                                    <g id="SvgjsG1382">
                                        <defs>
                                            <clipPath id="SvgjsClipPath1381"
                                                class="frame-clip frame-clip-def">
                                                <path
                                                    d="M389.6193939818223,267.15258645889014 h27.456183439554223 a27.848557146471776,27.848557146471776 0 0 1 27.848557146471776,27.848557146471776 v6.962139286617948 a13.924278573235888,13.924278573235888 0 0 1 -13.924278573235888,13.924278573235888 h-48.34260129940806 a20.886417859853832,20.886417859853832 0 0 1 -20.886417859853832,-20.886417859853832 v-3.552713678800501e-15 a27.848557146471776,27.848557146471776 0 0 1 27.848557146471776,-27.848557146471776 z"
                                                    x="361.77083683535056" y="267.15258645889014"
                                                    width="83.15329773249778"
                                                    height="48.73497500632561"
                                                    transform="matrix(-0.999908, -0.013600, -0.042245, 0.999107, 818.972961, 5.745917)"></path>
                                            </clipPath>
                                        </defs>
                                        <g class="frame-container-wrapper">
                                            <g class="frame-container-blur">
                                                <g class="frame-container-shadows">
                                                    <g
                                                        clip-path="url(#frame-clip-7df903a0-afba-80e7-8006-343b1a16ebe9-render-20)"
                                                        fill="none">
                                                        <g class="fills" id="SvgjsG1380">
                                                            <path
                                                                d="M389.6193939818223,267.15258645889014 h27.456183439554223 a27.848557146471776,27.848557146471776 0 0 1 27.848557146471776,27.848557146471776 v6.962139286617948 a13.924278573235888,13.924278573235888 0 0 1 -13.924278573235888,13.924278573235888 h-48.34260129940806 a20.886417859853832,20.886417859853832 0 0 1 -20.886417859853832,-20.886417859853832 v-3.552713678800501e-15 a27.848557146471776,27.848557146471776 0 0 1 27.848557146471776,-27.848557146471776 z"
                                                                x="361.77083683535056"
                                                                y="267.15258645889014"
                                                                width="83.15329773249778"
                                                                height="48.73497500632561"
                                                                transform="matrix(-0.999908, -0.013600, -0.042245, 0.999107, 818.972961, 5.745917)"
                                                                class="frame-background"
                                                                style="fill: rgb(255, 255, 255); fill-opacity: 1;"></path>
                                                        </g>
                                                        <g class="frame-children">
                                                            <g id="SvgjsG1379">
                                                                <defs>
                                                                    <clipPath id="SvgjsClipPath1378"
                                                                        class="frame-clip frame-clip-def">
                                                                        <rect
                                                                            rx="20.549378175272068"
                                                                            ry="20.549378175272068"
                                                                            x="376.2753111843522"
                                                                            y="263.81926679278797"
                                                                            width="41.098756350544136"
                                                                            height="54.46850147765781"
                                                                            transform="matrix(-0.999908, -0.013600, -0.042245, 0.999107, 805.908262, 5.656788)"></rect>
                                                                    </clipPath>
                                                                </defs>
                                                                <g class="frame-container-wrapper">
                                                                    <g class="frame-container-blur">
                                                                        <g
                                                                            class="frame-container-shadows">
                                                                            <g
                                                                                clip-path="url(#frame-clip-7df903a0-afba-80e7-8006-343b1a16ebea-render-21)"
                                                                                fill="none">
                                                                                <g class="fills"
                                                                                    id="SvgjsG1377">
                                                                                    <rect
                                                                                        width="41.098756350544136"
                                                                                        height="54.46850147765781"
                                                                                        class="frame-background"
                                                                                        x="376.2753111843522"
                                                                                        transform="matrix(-0.999908, -0.013600, -0.042245, 0.999107, 805.908262, 5.656788)"
                                                                                        style="fill: rgb(124, 143, 162); fill-opacity: 1;"
                                                                                        ry="20.549378175272068"
                                                                                        rx="20.549378175272068"
                                                                                        y="263.81926679278797"></rect>
                                                                                </g>
                                                                                <g
                                                                                    class="frame-children"></g>
                                                                            </g>
                                                                        </g>
                                                                    </g>
                                                                </g>
                                                            </g>
                                                        </g>
                                                    </g>
                                                </g>
                                            </g>
                                        </g>
                                    </g>
                                    <g id="SvgjsG1376">
                                        <g class="fills" id="SvgjsG1375">
                                            <path
                                                d="M266.600,435.451C266.600,434.033,268.136,432.881,270.028,432.881L370.221,432.881C372.112,432.881,373.648,434.033,373.648,435.451L373.648,435.451C373.648,444.317,364.049,451.515,352.226,451.515L288.023,451.515C276.200,451.515,266.600,444.317,266.600,435.451ZL266.600,435.451Z"
                                                style="fill: rgb(238, 168, 160); fill-opacity: 1;"></path>
                                        </g>
                                    </g>
                                </g>
                            </g>
                        </g>
                    </g>
                </g>
            </g>
        </g>
    </svg>
    <style>@media (prefers-color-scheme: light) { :root { filter: none; } }
        @media (prefers-color-scheme: dark) { :root { filter: none; } }
</style>
</svg>